<svg id="Capa_1" enable-background="new 0 0 494.708 494.708" height="512" viewBox="0 0 494.708 494.708" width="512" xmlns="http://www.w3.org/2000/svg"><g><path d="m428.496 181.327 5.323-20.399c16.64-63.775-17.682-129.797-79.442-152.816-61.76-23.019-130.921 4.434-160.081 63.543l-8.955 18.153c-14.235 28.854-34.29 54.565-59.391 74.694-24.974 20.027-45.083 46.775-57.239 78.843-36.285 95.719 12.508 203.592 108.364 239.512 96.094 36.01 203.132-12.816 238.957-108.934 11.925-31.995 14.448-65.191 8.962-96.561-5.585-31.934-4.683-64.666 3.502-96.035z" fill="#a6d786"/><path d="m135.684 267.048c12.156-32.067 32.265-58.815 57.239-78.842 25.1-20.129 45.156-45.84 59.391-74.694l8.955-18.153c23.391-47.416 72.518-74.465 122.922-71.427-9.013-6.434-18.987-11.784-29.814-15.819-61.76-23.019-130.921 4.435-160.081 63.543l-8.955 18.153c-14.234 28.854-34.29 54.565-59.391 74.694-24.974 20.027-45.083 46.775-57.239 78.843-36.285 95.719 12.508 203.591 108.364 239.512 12.511 4.688 25.216 7.933 37.917 9.828-76.244-44.958-111.717-140.146-79.308-225.638z" fill="#94cf6f"/><path d="m190.186 447.865c-36.979-13.857-66.382-41.461-82.793-77.727-16.417-36.278-17.746-76.603-3.742-113.548 9.375-24.729 25.169-46.492 45.676-62.936 28.631-22.959 52.672-53.152 69.525-87.315l8.955-18.151c20.756-42.073 69.558-61.445 113.518-45.061s68.179 62.972 56.335 108.366l-5.323 20.4c-9.425 36.122-10.822 73.774-4.155 111.906 4.504 25.755 2.026 52.406-7.168 77.073-13.823 37.088-41.257 66.571-77.251 83.02-35.988 16.447-76.228 17.893-113.307 4.074-.003-.001-.27-.101-.27-.101z" fill="#fbe88c"/><path d="m227.808 88.189-8.955 18.151c-16.853 34.163-40.895 64.356-69.525 87.315-20.507 16.444-36.301 38.207-45.676 62.936-14.004 36.945-12.676 77.27 3.742 113.548 9.355 20.673 22.934 38.532 39.729 52.634-25.542-46.143-31.504-102.794-11.438-155.725 12.156-32.067 32.265-58.815 57.239-78.842 25.1-20.129 45.156-45.84 59.391-74.694l8.955-18.153c12.678-25.698 32.923-45.418 56.826-57.604-36.876-3.573-73.147 15.687-90.288 50.434z" fill="#fbe372"/><ellipse cx="244.387" cy="303.218" fill="#b37e67" rx="107.412" ry="96.986" transform="matrix(.349 -.937 .937 .349 -125.088 426.321)"/></g></svg>