<svg id="Layer_1" height="512" viewBox="0 0 512 512" width="512" xmlns="http://www.w3.org/2000/svg" data-name="Layer 1"><path d="m51.26 299.28-3.95 22.27-20.12 14.41c-7.4-5.47-16.06-12.13-16.19-16.5-.22-7.36 8.97-19.14 8.97-19.14 6.13-3.49 22.42-.62 31.29-1.04z" fill="#706a37"/><path d="m401.391 116.429 6.7-13.51c11.16 3.95 21.6 5.06 28.3 8.58 37.83 19.8 63.86 79.77 64.55 115.63 1.77 92.26-35.53 158.02-80.89 200.07-17.22 15.96-47.86 39.58-97.27 42.67-2.42.15-5.51.49-8.83.82l10.17-26.45-15.14-18.98c9.97-13.27 23.98-28.1 34.28-42.06 25.63-22.8 47.36-54.42 61.65-98.69 11.93-36.96 17.91-104.8-7.48-140.61-4.49-6.35-13.54-12.24-21.91-21.06l23.96-2.56z" fill="#fff27d"/><path d="m500.942 227.13c-.691-35.861-26.721-95.831-64.551-115.631-6.7-3.52-17.14-4.63-28.3-8.58l-6.7 13.51-1.909 3.85-.063.007c22.448 25.617 37.567 62.354 39.372 87.684 6.553 92.044-27.286 159.65-70.4 204-9.761 10.03-24.142 23.03-44.584 33.088l-9.855 25.632c3.319-.331 6.41-.671 8.83-.821 49.41-3.09 80.05-26.71 97.269-42.669 45.361-42.051 82.66-107.81 80.891-200.07z" fill="#ffe33b"/><path d="m143.1 391.229-9.76-18.16c18.84-8.86 54.85-21.82 69.33-26.78 56.09-19.21 104.56-86 118.02-142.83 3.45-14.58 7.37-27.97 21.61-69.29a20.9 20.9 0 0 0 1.01-4.62l16.16 5.25 16.04-11.96h.01c8.37 8.82 17.42 14.71 21.91 21.06 25.39 35.81 19.41 103.65 7.48 140.61-14.29 44.27-36.02 75.89-61.65 98.69-26.86 23.89-58 38.12-89.37 47.1-23.28 6.67-78.15 10.16-128.84-9.78z" fill="#fff27d"/><path d="m397.431 143.9c-4.489-6.35-13.54-12.24-21.91-21.06h-.01l-10.722 8c11.83 38.109 3.027 91.233-8.821 121.959-16.735 43.405-40.194 73.764-67.055 95.1-28.15 22.356-60.035 34.828-91.857 42.045-11.822 2.684-31.505 4.131-54.426 2.054l-17.579 28.526c50.691 19.94 105.561 16.45 128.84 9.78 31.37-8.979 62.511-23.21 89.37-47.1 25.63-22.8 47.361-54.421 61.651-98.69 11.929-36.965 17.91-104.805-7.481-140.614z" fill="#f9d438"/><path d="m47.311 321.549 3.95-22.27a19.553 19.553 0 0 0 2.79-.3c16.29-3.12 54.9-6.56 73.23-8.37 45.98-4.53 120.49-50.58 147.47-100.36 6.92-12.77 11.59-26.21 35.38-61.26a18.959 18.959 0 0 0 2.08-4.09l28.81 4.55 2.24.08.05.02a20.9 20.9 0 0 1 -1.01 4.62c-14.24 41.32-18.16 54.71-21.61 69.29-13.46 56.83-61.93 123.62-118.02 142.83-14.48 4.96-50.49 17.92-69.33 26.78-4.29 2.02-13.05 3.35-20.74 5.26-20.54-4.11-51.87-15.88-78.32-37.04-1.89-1.51-4.41-3.34-7.09-5.33z" fill="#f8ee4f"/><path d="m312.211 124.9c-.539 1.46-30.539 52.58-37.459 65.351-26.981 49.779-101.49 95.829-147.471 100.359-18.33 1.81-56.939 5.25-73.23 8.37a19.394 19.394 0 0 1 -2.789.3l-3.951 22.27s52.07 12.792 92.416 2.886c44.87-11.018 120.49-50.581 147.47-100.36 6.92-12.77 44.6-96.082 44.6-96.082z" fill="#fffac1"/><path d="m308.981 425.259 15.14 18.98-10.17 26.45c-9.16.92-20.05 1.81-23.08-1.34-5.11-5.3-6.23-20.19-6.23-20.19 2.45-7.5 19.62-17.63 24.34-23.9z" fill="#eadf53"/><path d="m112.6 378.329c7.69-1.91 16.45-3.24 20.74-5.26l9.76 18.16-18.05 29.29c-8.71-3.43-27.23-9.47-29.01-15.33-2.2-7.26 3.78-21.47 3.78-21.47 2.391-2.39 7.321-4.04 12.78-5.39z" fill="#706a37"/><g fill="#8c8448"><path d="m408.091 102.919-6.7 13.51-1.91 3.85-23.96 2.56c-9.26-9.75-17.69-23.09-18.23-44.6-.21-8.18 3.42-16.86-5.87-28.15l1.17-.41c15.41 5.56 15.97 15.32 19.99 22.7 9.98 18.34 23.18 26.17 35.51 30.54z"/><path d="m375.521 122.839h-.01l-16.04 11.96-16.16-5.25c2.01-17.99-15.16-42.52-15.16-42.52l.03-13.14s-10.81-16.21-3.57-29.37a4.32 4.32 0 0 1 3.53-1.92c0-.01.01 0 .01 0 7.16-.89 21.48 5.46 21.48 5.46.64.69 1.24 1.36 1.79 2.03 9.29 11.29 5.66 19.97 5.87 28.15.54 21.51 8.97 34.85 18.23 44.6z"/><path d="m328.151 87.029s17.17 24.53 15.16 42.52l-.05-.02-2.24-.08-28.81-4.55c6.06-16.35-5.98-43.86-5.98-43.86l5.94-12.15s-6.02-17.97 4.1-28.44l11.87 2.15a4.32 4.32 0 0 0 -3.53 1.92c-7.24 13.16 3.57 29.37 3.57 29.37z"/></g><path d="m439.177 106.185c-4.362-2.283-9.748-3.622-15.451-5.039-14.767-3.668-33.144-8.233-45.877-31.63a48.109 48.109 0 0 1 -1.991-4.383c-2.782-6.675-6.591-15.817-21.229-21.1a6.137 6.137 0 0 0 -.789-.219 5.977 5.977 0 0 0 -1.78-1.238 101.016 101.016 0 0 0 -12.06-4.337c-2.225-.627-6.966-1.96-11.5-1.678l-11.168-2.016a6 6 0 0 0 -5.382 1.736c-10.1 10.455-7.638 25.978-6.167 32.012l-4.946 10.114a6 6 0 0 0 -.107 5.042c3.079 7.033 10.063 27.935 5.877 39.288-.009.026-.02.051-.029.077a13.3 13.3 0 0 1 -1.417 2.809c-18.437 27.167-25.709 41.869-31.018 52.605-1.664 3.365-3.1 6.271-4.672 9.168-26.382 48.671-99.68 93-142.777 97.242-2.654.262-5.733.558-9.108.882-20.093 1.931-50.458 4.848-64.664 7.569a13.743 13.743 0 0 1 -1.779.192c-.067 0-.131.006-.2.009-2.593.119-6.313-.1-9.944-.315-9.024-.535-18.356-1.087-24.006 2.133a6.014 6.014 0 0 0 -1.759 1.522c-1.757 2.252-10.5 13.942-10.23 23.009.214 7.057 8.107 13.4 20.124 22.265 2.037 1.5 3.96 2.923 5.4 4.075 20.882 16.7 44.923 27.819 64.63 34a5.964 5.964 0 0 0 -.878 1.418c-1.138 2.706-6.673 16.655-3.982 25.529 2.2 7.266 13.072 11.841 28.186 17.511 1.612.6 3.1 1.162 4.366 1.662 29.2 11.486 59.716 15.461 85.267 15.461 19.749 0 36.532-2.376 47.422-5.5a257.387 257.387 0 0 0 55.018-22.513c-2.238 2.742-4.394 5.457-6.378 8.1-1.443 1.92-5.235 4.974-8.9 7.928-7.041 5.67-14.321 11.533-16.34 17.714a6.029 6.029 0 0 0 -.279 2.31c.213 2.847 1.593 17.383 7.89 23.911 2.92 3.028 7.687 4.035 14.206 4.035 4.423 0 9.652-.464 15.658-1.075 2.519-.256 4.9-.5 6.739-.613 38.418-2.4 71.449-16.883 100.98-44.263 38.878-36.047 84.8-100.8 82.8-204.586-.688-36.002-26.802-99.387-67.756-120.823zm-75.656-33.071c.137-1.738.284-3.628.29-5.651.326.741.644 1.5.97 2.287a58.171 58.171 0 0 0 2.528 5.5c9.263 17.022 21.056 25.727 32.506 30.843l-4.246 8.569-17.664 1.882c-7.717-8.8-14.164-20.484-14.616-38.458-.038-1.519.094-3.196.232-4.972zm-34.177-24.631c2.91-.169 10.184 1.816 16.715 4.572 6.426 7.306 6 12.8 5.5 19.12a59.252 59.252 0 0 0 -.266 6.215c.366 14.536 4.07 26.942 11.325 37.926 1.307 1.979 2.688 3.833 4.107 5.587l-8.353 6.227-8.923-2.9c-.234-6.939-2.376-14.921-6.429-23.873a125.018 125.018 0 0 0 -8.867-16.141l.03-11.309a6 6 0 0 0 -1.009-3.346c-.084-.124-8.03-12.497-3.83-22.078zm-11.483 18.5a36.449 36.449 0 0 1 -1.347-7.274 47.487 47.487 0 0 0 5.665 15.853l-.031 11.459a6.018 6.018 0 0 0 1.083 3.454c4.021 5.758 12.457 20.3 14.012 32.306l-17.729-2.8c1.978-14.636-4.019-31.933-6.709-38.727l4.757-9.726a6.005 6.005 0 0 0 .299-4.547zm-290.582 261.535c-4.351-3.342-9.323-7.44-10.276-9.55.138-3.31 3.839-9.686 6.822-13.792 3.372-1 11.45-.519 16.468-.222 1.32.078 2.593.152 3.827.215l-2.295 12.931zm10.747 8.089c-.215-.173-.455-.357-.684-.536l11.151-7.987c5.342 1.395 17.654 4.444 31.527 6.734a6 6 0 0 0 1.955-11.839c-11.339-1.872-21.793-4.324-27.794-5.831l2.218-12.5c14.156-2.555 43.035-5.33 62.334-7.184 3.386-.325 6.475-.622 9.138-.884 46.933-4.626 123.618-50.83 152.15-103.467 1.677-3.094 3.232-6.238 4.877-9.566 5.444-11 12.217-24.7 30.193-51.186.188-.278.356-.567.532-.852l20.147 3.184c-13.62 39.615-17.506 52.961-20.922 67.385-12.593 53.193-58.723 119.557-114.119 138.537-12.782 4.379-50.261 17.771-69.939 27.029-2.252 1.06-7.056 2.086-11.7 3.078-2.2.47-4.415.945-6.581 1.458-19.976-4.222-49.589-15.664-74.483-35.573zm84.521 76.538c-5.252-1.97-18.542-6.976-20.832-9.96-.8-3.36 1.212-10.864 3.1-15.81 1.768-1.136 5.162-2.187 8.782-3.1a5.971 5.971 0 0 0 1.159-.287c2.376-.575 4.784-1.09 6.838-1.529 3.254-.7 6.244-1.339 8.873-2.06l5.71 10.628zm129.693 11.386c-21.475 6.148-71.455 9.231-118.234-7.106l12.474-20.243a174.376 174.376 0 0 0 27.954-3.422 6 6 0 0 0 -2.36-11.766 165.333 165.333 0 0 1 -25.423 3.173l-4.982-9.275c20.065-8.789 51.511-20 62.948-23.923 27.184-9.314 54.794-30.358 77.746-59.255 21.149-26.627 37.245-58.654 44.162-87.87 3.36-14.189 7.226-27.412 21.058-67.6l10.034 3.258a6 6 0 0 0 5.44-.9l11.885-8.861c2.691 2.568 5.334 4.863 7.747 6.955 4.168 3.614 7.769 6.736 9.85 9.671 23.856 33.651 18.255 99.377 6.658 135.3-13.12 40.641-33.882 73.483-61.708 97.614-22.982 19.933-50.867 34.406-85.249 44.25zm57.445 40.53c-5.6.48-12.49.855-14.7-.106-2.123-2.543-3.668-9.753-4.218-14.8 1.826-3 8.13-8.08 12.043-11.232 2.047-1.648 3.957-3.193 5.669-4.678l8.809 11.048zm106.291-42.261c-10.04 9.308-40.518 37.551-92.963 41.039l6.707-17.443a6 6 0 0 0 -.909-5.894l-12.206-15.306c3.986-5.064 8.446-10.322 13.123-15.829 6.248-7.358 12.7-14.963 18.176-22.359 28.483-25.526 49.244-58.928 62.713-100.65 11.512-35.66 19.441-106.811-8.289-145.926-2.917-4.115-7.221-7.847-11.778-11.8-.462-.4-.931-.807-1.4-1.216l10.968-1.169a6 6 0 0 0 4.687-3.209c15.919 3.062 30.008 12.939 45.376 45.247a6 6 0 1 0 10.836-5.155c-10.84-22.789-24.553-44.469-50.735-51.127l.879-1.775c3.379 1 6.631 1.809 9.672 2.564 5.2 1.293 9.693 2.409 12.78 4.024 36.507 19.109 60.707 78.166 61.328 110.427 1.912 99.342-41.887 161.176-78.965 195.557z" fill="#151515"/></svg>