<svg id="Capa_1" enable-background="new 0 0 511.149 511.149" height="512" viewBox="0 0 511.149 511.149" width="512" xmlns="http://www.w3.org/2000/svg"><g><g><g><path d="m473.716 118.521c-2.8-4.802-1.778-10.918 2.386-14.601l4.757-4.208c13.275-11.743 15.29-32.077 3.916-45.67-11.801-14.102-32.827-15.609-46.511-3.506l-5.264 4.658c-4.163 3.682-10.358 3.95-14.782.585-88.814-67.55-222.858-59.826-317.919 24.259-94.463 83.557-118.786 214.526-63.938 310.758 3.359 5.893 2.17 13.323-2.91 17.816l-3.14 2.778c-13.299 11.763-15.339 32.152-3.922 45.749 11.808 14.063 32.805 15.555 46.475 3.463l3.725-3.295c5.059-4.475 12.549-4.748 17.964-.71 88.817 66.216 221.799 58.073 316.276-25.496 95.061-84.086 119.09-216.185 62.887-312.58z" fill="#fbe88c"/></g><path d="m95.654 284.076c0-118.087 66.192-220.721 163.475-272.844-55.687 4.487-111.997 27.38-158.83 68.806-94.463 83.557-118.786 214.526-63.938 310.757 3.359 5.893 2.17 13.323-2.91 17.817l-3.14 2.778c-13.299 11.763-15.339 32.152-3.922 45.749 11.808 14.063 32.805 15.555 46.475 3.463l3.725-3.295c5.06-4.475 12.549-4.748 17.964-.71 25.125 18.732 53.8 31.516 84.123 38.323-51.49-55.249-83.022-129.364-83.022-210.844z" fill="#fbe372"/></g><g><path d="m510.109 209.288c-.38-4.125-4.033-7.155-8.157-6.78-4.125.381-7.16 4.032-6.78 8.157 7.249 78.633-26.139 158.938-89.312 214.818-90.235 79.815-219.273 90.372-306.825 25.101-8.229-6.136-19.758-5.669-27.416 1.105l-3.725 3.295c-5.099 4.51-11.646 6.719-18.436 6.212-6.787-.503-12.94-3.657-17.326-8.881-8.641-10.291-7.229-26.13 3.147-35.308l3.141-2.778c7.677-6.791 9.552-18.209 4.457-27.148-26.335-46.205-34.358-102.236-22.589-157.771.859-4.052-1.73-8.033-5.782-8.892-4.054-.859-8.033 1.729-8.892 5.782-12.531 59.134-3.925 118.907 24.231 168.309 1.599 2.805 1.025 6.373-1.363 8.485l-3.14 2.777c-16.415 14.519-18.521 39.726-4.697 56.19 7.009 8.348 16.848 13.389 27.704 14.193 10.859.817 21.33-2.723 29.483-9.936l3.725-3.295c2.368-2.094 5.948-2.227 8.512-.315 41.06 30.611 90.598 45.627 141.36 45.623 64.478-.004 130.921-24.237 184.369-71.514 66.74-59.033 101.996-144.054 94.311-227.429z"/><path d="m19.065 204.004c.81.279 1.633.411 2.444.411 3.111 0 6.02-1.951 7.09-5.059 14.883-43.182 41.395-82.499 76.668-113.701 44.399-39.272 100.107-63.113 156.863-67.129 55.883-3.959 109.702 11.395 151.546 43.221 7.238 5.506 17.455 5.111 24.292-.936l5.265-4.657c5.104-4.515 11.655-6.722 18.457-6.211 6.794.51 12.95 3.676 17.333 8.913 8.608 10.287 7.203 26.096-3.133 35.238l-4.756 4.208c-6.839 6.047-8.478 16.139-3.896 23.995 10.407 17.851 18.137 37.313 22.973 57.849.95 4.031 4.987 6.534 9.02 5.58 4.032-.949 6.531-4.987 5.581-9.02-5.177-21.981-13.459-42.829-24.616-61.965-.987-1.693-.62-3.882.876-5.203l4.757-4.209c16.363-14.475 18.471-39.641 4.699-56.101-7.004-8.37-16.847-13.429-27.714-14.244-10.866-.812-21.354 2.713-29.518 9.934l-5.264 4.657c-1.493 1.32-3.711 1.421-5.272.232-44.749-34.031-102.168-50.453-161.688-46.243-60.026 4.248-118.888 29.412-165.742 70.857-37.208 32.912-65.187 74.425-80.912 120.048-1.35 3.917.731 8.186 4.647 9.535z"/><path d="m192.274 113.412c-4.142 0-7.5 3.357-7.5 7.5s3.358 7.5 7.5 7.5h9.812c4.142 0 7.5-3.357 7.5-7.5s-3.358-7.5-7.5-7.5z"/><path d="m141.146 158.86c-4.142 0-7.5 3.357-7.5 7.5s3.358 7.5 7.5 7.5h9.812c4.142 0 7.5-3.357 7.5-7.5s-3.358-7.5-7.5-7.5z"/><path d="m219.646 178.485c-4.142 0-7.5 3.357-7.5 7.5s3.358 7.5 7.5 7.5h9.812c4.142 0 7.5-3.357 7.5-7.5s-3.358-7.5-7.5-7.5z"/></g></g></svg>