<?xml version="1.0" encoding="iso-8859-1"?>
<!-- Generator: Adobe Illustrator 19.0.0, SVG Export Plug-In . SVG Version: 6.00 Build 0)  -->
<svg version="1.1" id="Capa_1" xmlns="http://www.w3.org/2000/svg" xmlns:xlink="http://www.w3.org/1999/xlink" x="0px" y="0px"
	 viewBox="0 0 512 512" style="enable-background:new 0 0 512 512;" xml:space="preserve">
<path style="fill:#368B4C;" d="M278.331,149.454c-5.628,1.853-11.686,3.465-18.205,4.807c0,0-3.605-8.682-5.878-22.13
	c-5.047-29.891-3.515-83.364,58.84-117.481c3.725-2.033,7.671-4.005,11.836-5.898c8.101-3.675,17.544,1.142,19.386,9.843
	c0.801,3.805,1.592,8.171,2.243,12.958C351.341,67.432,347.576,126.663,278.331,149.454z"/>
<path style="fill:#3FA45A;" d="M254.248,132.131c-5.047-29.891-3.515-83.364,58.84-117.481c0.15,0.941,0.29,1.903,0.421,2.884
	C318.075,51.801,314.851,107.357,254.248,132.131z"/>
<path style="fill:#368B4C;" d="M189.349,204.92c-50.379,85.797-125.061,54.084-155.563,35.919
	c-7.64-4.556-9.153-15.041-3.064-21.519c5.117-5.447,10.234-10.254,15.331-14.47c61.604-51.03,120.194-16.833,137.889-4.126
	C187.447,203.248,189.349,204.92,189.349,204.92z"/>
<path style="fill:#3FA45A;" d="M183.942,200.724c-48.206,49.017-107.727,23.132-134.133,7.4c-1.492-0.891-2.754-2.003-3.755-3.274
	C107.658,153.82,166.248,188.017,183.942,200.724z"/>
<path style="fill:#4CBA68;" d="M227.081,185.554c-82.333,55.866-136.176-4.837-155.923-34.347
	c-4.947-7.39-1.802-17.504,6.479-20.748c6.259-2.453,12.297-4.426,18.115-5.978c68.474-18.305,106.736,22.14,122.568,45.692
	C224.297,179.065,227.081,185.554,227.081,185.554z"/>
<path style="fill:#64C37D;" d="M218.319,170.173c-61.654,23.452-103.542-19.176-122.568-45.692
	C164.225,106.175,202.487,146.62,218.319,170.173z"/>
<path style="fill:#4CBA68;" d="M230.184,183.787c79.229-60.186,38.895-130.593,17.234-158.729
	c-5.424-7.048-16.012-7.297-21.731-0.485c-4.323,5.148-8.12,10.24-11.449,15.258c-39.209,59.046-13.097,108.219,4.168,130.741
	C224.923,179.078,230.184,183.787,230.184,183.787z"/>
<path style="fill:#64C37D;" d="M218.405,170.573c41.909-50.94,14.886-104.245-4.168-130.741
	C175.029,98.877,201.141,148.05,218.405,170.573z"/>
<path style="fill:#C70024;" d="M463.865,458.467c-1.091,2.984-2.363,5.848-3.815,8.602c-12.938,24.574-39.524,39.484-67.793,37.191
	c-108.879-8.862-207.223-78.377-207.223-78.377c-78.367-52.011-88.1-164.935-18.515-214.734l2.373-1.692l50.799-36.37l53.173-38.052
	c69.585-49.798,173.517-4.216,197.28,86.789C498.202,329.23,481.098,411.312,463.865,458.467z"/>
<path style="fill:#FF0C38;" d="M463.865,458.467c-1.091,2.984-2.363,5.848-3.815,8.602c-11.536,6.098-24.824,9.012-38.503,7.901
	c-108.879-8.862-207.223-78.377-207.223-78.377c-66.08-43.86-83.364-131.019-45.432-187.136l50.799-36.37l53.173-38.052
	c69.585-49.798,173.517-4.216,197.28,86.789C498.202,329.23,481.098,411.312,463.865,458.467z"/>
<ellipse transform="matrix(-0.8132 0.582 -0.582 -0.8132 529.3708 493.4775)" cx="185.488" cy="331.697" rx="9.022" ry="16.247"/>
<ellipse transform="matrix(0.8132 -0.582 0.582 0.8132 -103.9842 173.6438)" cx="218.5" cy="248.802" rx="9.022" ry="16.247"/>
<ellipse transform="matrix(-0.8132 0.582 -0.582 -0.8132 719.1804 373.2432)" cx="299.689" cy="302.042" rx="9.022" ry="16.247"/>
<ellipse transform="matrix(0.8132 -0.582 0.582 0.8132 -26.5242 275.1363)" cx="415.329" cy="178.886" rx="9.022" ry="16.247"/>
<ellipse transform="matrix(-0.582 -0.8132 0.8132 -0.582 391.2289 759.6775)" cx="390.863" cy="279.287" rx="16.247" ry="9.022"/>
<ellipse transform="matrix(-0.8132 0.582 -0.582 -0.8132 1012.7191 402.867)" cx="441.704" cy="363.964" rx="9.022" ry="16.247"/>
<ellipse transform="matrix(0.8132 -0.582 0.582 0.8132 -176.4079 268.6759)" cx="330.323" cy="409.136" rx="9.022" ry="16.247"/>
<ellipse transform="matrix(0.8132 -0.582 0.582 0.8132 -186.1726 322.0207)" cx="408.538" cy="451.019" rx="9.022" ry="16.247"/>
<ellipse transform="matrix(0.8132 -0.582 0.582 0.8132 -196.13 209.0079)" cx="227.515" cy="410.023" rx="9.022" ry="16.247"/>
<ellipse transform="matrix(0.8132 -0.582 0.582 0.8132 -52.0618 221.2629)" cx="318.639" cy="191.73" rx="9.022" ry="16.247"/>
<path d="M484.513,355.756c-4.156-0.31-7.741,2.794-8.051,6.929c-2.453,32.895-9.062,64.258-19.647,93.207
	c-8.982,24.574-32.635,41.086-58.84,41.086c-1.692,0-3.415-0.07-5.107-0.21c-105.484-8.582-202.537-76.334-203.498-77.015
	c-0.06-0.05-0.12-0.09-0.18-0.13c-25.525-16.933-44.961-42.138-54.755-70.957c-1.332-3.925-5.598-6.028-9.523-4.696
	c-3.925,1.332-6.028,5.598-4.696,9.523c10.835,31.924,32.344,59.822,60.573,78.587c1.953,1.372,26.236,18.265,63.757,36.43
	c35.428,17.143,89.703,38.563,147.101,43.229c2.103,0.17,4.226,0.26,6.329,0.26c32.494,0,61.804-20.478,72.94-50.95
	c11.065-30.251,17.965-62.976,20.528-97.243C491.743,359.672,488.649,356.067,484.513,355.756z"/>
<path d="M121.587,329.3c4.116-0.481,7.07-4.206,6.589-8.331c-0.581-4.977-0.881-10.014-0.881-14.95
	c0-16.946,3.514-32.853,9.111-45.648c13.138-30.661,36.317-44.126,36.992-44.915l0.499-0.349c0.004-0.003,0.011-0.008,0.019-0.014
	c-0.007,0.005-0.013,0.01-0.019,0.013l0.001-0.001c0.02-0.014,0.035-0.025,0.048-0.034c0.011-0.008,0.021-0.015,0.036-0.026
	c-0.003,0.002-0.007,0.005-0.012,0.009c0.014-0.01,0.018-0.013,0.016-0.011c1.065-0.762,12.124-8.678,103.243-73.898
	c65.337-46.782,163.228-3.268,185.654,82.583c9.663,37.001,14.59,73.841,14.64,109.52c0.01,4.146,3.375,7.5,7.51,7.5
	c4.137,0,7.52-3.353,7.51-7.52c-0.06-36.951-5.147-75.073-15.131-113.295c-16.583-63.487-72.559-110.081-134.434-112.774
	c6.369-12.036,9.683-24.493,11.245-35.869c0.571-4.116-2.303-7.901-6.419-8.462c-4.106-0.571-7.891,2.303-8.462,6.409
	c-2.033,14.77-6.739,27.568-14.089,38.392c-15.071,1.492-29.54,5.788-42.789,12.707c0.551-2.724,0.981-5.467,1.292-8.241
	c0.471-4.126-2.503-7.841-6.619-8.301c-4.136-0.461-7.841,2.503-8.301,6.629c-0.871,7.761-2.904,15.301-6.088,22.611l-40.796,29.2
	c-2.447-3.407-4.408-5.774-5.107-6.659c-8.071-13.198-15.842-31.463-15.842-52.922c0-24.744,10.234-49.408,30.422-73.31
	c1.652-1.963,3.765-2.253,4.877-2.253c2.033,0,3.915,0.921,5.147,2.533c5.327,6.97,11.576,16.282,16.803,27.207
	c3.977,8.263,7.151,17.033,9.072,26.116c0.861,4.056,4.847,6.649,8.902,5.798c4.056-0.861,6.649-4.847,5.798-8.912
	c-1.632-7.67-3.995-14.97-6.799-21.79c10.234-15.621,26.757-30.632,52.802-42.448c0.841-0.381,1.722-0.571,2.614-0.571
	c2.604,0,5.608,1.762,6.319,5.127c1.462,6.909,2.483,13.889,3.034,20.728c0.33,4.136,3.935,7.22,8.081,6.889
	c4.136-0.33,7.22-3.945,6.889-8.081c-0.601-7.49-1.712-15.111-3.305-22.651C349.568,7.16,340.726,0,330.643,0
	c-3.044,0-6.018,0.641-8.822,1.913c-25.114,11.386-42.388,25.515-54.084,40.525c-4.746-8.622-9.843-16.042-14.35-21.94
	c-4.106-5.357-10.324-8.432-17.083-8.432c-6.319,0-12.287,2.764-16.352,7.58c-22.541,26.686-33.966,54.615-33.966,83.003
	c0,3.875,0.23,7.65,0.631,11.325L153.54,67.763c-2.413-3.375-7.11-4.146-10.484-1.742c-3.365,2.423-4.146,7.11-1.732,10.484
	l32.434,45.312c-23.702-10.655-56.427-14.96-98.865,1.652c-6.058,2.373-10.665,7.3-12.617,13.528
	c-1.963,6.249-0.991,12.958,2.644,18.385c3.955,5.908,9.363,13.208,16.172,20.668c-19.727,6.819-38.413,19.557-55.846,38.122
	c-3.735,3.975-5.788,9.173-5.788,14.63c0,7.66,3.915,14.57,10.484,18.485c6.639,3.955,13.518,7.48,20.428,10.464
	c3.815,1.642,8.231-0.11,9.874-3.915c1.642-3.815-0.11-8.231-3.915-9.874c-6.319-2.734-12.617-5.958-18.696-9.583
	c-1.983-1.172-3.154-3.254-3.154-5.578c0-1.142,0.29-2.824,1.722-4.346c17.874-19.036,37.031-31.213,57.148-36.38
	c16.32,14.27,35.337,24.306,56.587,27.017c-10.984,10.363-19.775,22.718-26.093,36.484c-13.245,3.607-26.931,3.529-40.458,0.907
	c-4.076-0.781-8.011,1.873-8.802,5.948c-0.791,4.076,1.873,8.011,5.948,8.802c7.4,1.432,14.74,2.163,21.81,2.163h0.01
	c5.217,0,10.304-0.381,15.261-1.132c-3.505,11.916-5.337,24.594-5.337,37.752c0,5.518,0.33,11.135,0.981,16.693
	C113.736,326.837,117.471,329.781,121.587,329.3z M114.097,185.233c-6.028-4.116-11.466-8.752-16.312-13.488
	c-8.892-8.712-15.742-17.784-20.388-24.714c-1.091-1.632-1.382-3.655-0.781-5.538c0.34-1.091,1.282-3.074,3.755-4.046
	c17.274-6.759,33.576-10.134,48.827-10.134c29.048,0,53.826,12.473,72.96,34.187l5.708,7.981c0.441,0.641,0.881,1.272,1.322,1.883
	l-40.766,29.18C150.035,202.084,131.761,197.325,114.097,185.233z"/>
<path d="M173.986,215.041c-0.001,0.001-0.003,0.002-0.004,0.003C173.984,215.042,173.985,215.042,173.986,215.041z"/>
<path d="M173.894,215.107C173.884,215.114,173.882,215.115,173.894,215.107L173.894,215.107z"/>
<polygon points="173.894,215.107 173.897,215.105 173.896,215.105 "/>
<g>
</g>
<g>
</g>
<g>
</g>
<g>
</g>
<g>
</g>
<g>
</g>
<g>
</g>
<g>
</g>
<g>
</g>
<g>
</g>
<g>
</g>
<g>
</g>
<g>
</g>
<g>
</g>
<g>
</g>
</svg>
